<svg width="1315" height="507" viewBox="0 0 1315 507" fill="none" xmlns="http://www.w3.org/2000/svg">
<path d="M406.547 421.75L428.859 477.438L451.172 421.75H462.844V490H453.844V463.422L454.688 434.734L432.281 490H425.391L403.031 434.875L403.922 463.422V490H394.922V421.75H406.547ZM508.688 490C508.188 489 507.781 487.219 507.469 484.656C503.438 488.844 498.625 490.938 493.031 490.938C488.031 490.938 483.922 489.531 480.703 486.719C477.516 483.875 475.922 480.281 475.922 475.938C475.922 470.656 477.922 466.562 481.922 463.656C485.953 460.719 491.609 459.25 498.891 459.25H507.328V455.266C507.328 452.234 506.422 449.828 504.609 448.047C502.797 446.234 500.125 445.328 496.594 445.328C493.5 445.328 490.906 446.109 488.812 447.672C486.719 449.234 485.672 451.125 485.672 453.344H476.953C476.953 450.812 477.844 448.375 479.625 446.031C481.438 443.656 483.875 441.781 486.938 440.406C490.031 439.031 493.422 438.344 497.109 438.344C502.953 438.344 507.531 439.812 510.844 442.75C514.156 445.656 515.875 449.672 516 454.797V478.141C516 482.797 516.594 486.5 517.781 489.25V490H508.688ZM494.297 483.391C497.016 483.391 499.594 482.688 502.031 481.281C504.469 479.875 506.234 478.047 507.328 475.797V465.391H500.531C489.906 465.391 484.594 468.5 484.594 474.719C484.594 477.438 485.5 479.562 487.312 481.094C489.125 482.625 491.453 483.391 494.297 483.391ZM541.359 427V439.281H550.828V445.984H541.359V477.438C541.359 479.469 541.781 481 542.625 482.031C543.469 483.031 544.906 483.531 546.938 483.531C547.938 483.531 549.312 483.344 551.062 482.969V490C548.781 490.625 546.562 490.938 544.406 490.938C540.531 490.938 537.609 489.766 535.641 487.422C533.672 485.078 532.688 481.75 532.688 477.438V445.984H523.453V439.281H532.688V427H541.359ZM557.766 464.172C557.766 459.203 558.734 454.734 560.672 450.766C562.641 446.797 565.359 443.734 568.828 441.578C572.328 439.422 576.312 438.344 580.781 438.344C587.688 438.344 593.266 440.734 597.516 445.516C601.797 450.297 603.938 456.656 603.938 464.594V465.203C603.938 470.141 602.984 474.578 601.078 478.516C599.203 482.422 596.5 485.469 592.969 487.656C589.469 489.844 585.438 490.938 580.875 490.938C574 490.938 568.422 488.547 564.141 483.766C559.891 478.984 557.766 472.656 557.766 464.781V464.172ZM566.484 465.203C566.484 470.828 567.781 475.344 570.375 478.75C573 482.156 576.5 483.859 580.875 483.859C585.281 483.859 588.781 482.141 591.375 478.703C593.969 475.234 595.266 470.391 595.266 464.172C595.266 458.609 593.938 454.109 591.281 450.672C588.656 447.203 585.156 445.469 580.781 445.469C576.5 445.469 573.047 447.172 570.422 450.578C567.797 453.984 566.484 458.859 566.484 465.203ZM690.375 481.047C688.062 484.359 684.828 486.844 680.672 488.5C676.547 490.125 671.734 490.938 666.234 490.938C660.672 490.938 655.734 489.641 651.422 487.047C647.109 484.422 643.766 480.703 641.391 475.891C639.047 471.078 637.844 465.5 637.781 459.156V453.203C637.781 442.922 640.172 434.953 644.953 429.297C649.766 423.641 656.516 420.812 665.203 420.812C672.328 420.812 678.062 422.641 682.406 426.297C686.75 429.922 689.406 435.078 690.375 441.766H681.375C679.688 432.734 674.312 428.219 665.25 428.219C659.219 428.219 654.641 430.344 651.516 434.594C648.422 438.812 646.859 444.938 646.828 452.969V458.547C646.828 466.203 648.578 472.297 652.078 476.828C655.578 481.328 660.312 483.578 666.281 483.578C669.656 483.578 672.609 483.203 675.141 482.453C677.672 481.703 679.766 480.438 681.422 478.656V463.328H665.625V456.016H690.375V481.047ZM728.578 447.062C727.266 446.844 725.844 446.734 724.312 446.734C718.625 446.734 714.766 449.156 712.734 454V490H704.062V439.281H712.5L712.641 445.141C715.484 440.609 719.516 438.344 724.734 438.344C726.422 438.344 727.703 438.562 728.578 439V447.062ZM733.359 464.172C733.359 459.203 734.328 454.734 736.266 450.766C738.234 446.797 740.953 443.734 744.422 441.578C747.922 439.422 751.906 438.344 756.375 438.344C763.281 438.344 768.859 440.734 773.109 445.516C777.391 450.297 779.531 456.656 779.531 464.594V465.203C779.531 470.141 778.578 474.578 776.672 478.516C774.797 482.422 772.094 485.469 768.562 487.656C765.062 489.844 761.031 490.938 756.469 490.938C749.594 490.938 744.016 488.547 739.734 483.766C735.484 478.984 733.359 472.656 733.359 464.781V464.172ZM742.078 465.203C742.078 470.828 743.375 475.344 745.969 478.75C748.594 482.156 752.094 483.859 756.469 483.859C760.875 483.859 764.375 482.141 766.969 478.703C769.562 475.234 770.859 470.391 770.859 464.172C770.859 458.609 769.531 454.109 766.875 450.672C764.25 447.203 760.75 445.469 756.375 445.469C752.094 445.469 748.641 447.172 746.016 450.578C743.391 453.984 742.078 458.859 742.078 465.203ZM819.938 476.547C819.938 474.203 819.047 472.391 817.266 471.109C815.516 469.797 812.438 468.672 808.031 467.734C803.656 466.797 800.172 465.672 797.578 464.359C795.016 463.047 793.109 461.484 791.859 459.672C790.641 457.859 790.031 455.703 790.031 453.203C790.031 449.047 791.781 445.531 795.281 442.656C798.812 439.781 803.312 438.344 808.781 438.344C814.531 438.344 819.188 439.828 822.75 442.797C826.344 445.766 828.141 449.562 828.141 454.188H819.422C819.422 451.812 818.406 449.766 816.375 448.047C814.375 446.328 811.844 445.469 808.781 445.469C805.625 445.469 803.156 446.156 801.375 447.531C799.594 448.906 798.703 450.703 798.703 452.922C798.703 455.016 799.531 456.594 801.188 457.656C802.844 458.719 805.828 459.734 810.141 460.703C814.484 461.672 818 462.828 820.688 464.172C823.375 465.516 825.359 467.141 826.641 469.047C827.953 470.922 828.609 473.219 828.609 475.938C828.609 480.469 826.797 484.109 823.172 486.859C819.547 489.578 814.844 490.938 809.062 490.938C805 490.938 801.406 490.219 798.281 488.781C795.156 487.344 792.703 485.344 790.922 482.781C789.172 480.188 788.297 477.391 788.297 474.391H796.969C797.125 477.297 798.281 479.609 800.438 481.328C802.625 483.016 805.5 483.859 809.062 483.859C812.344 483.859 814.969 483.203 816.938 481.891C818.938 480.547 819.938 478.766 819.938 476.547ZM869.438 476.547C869.438 474.203 868.547 472.391 866.766 471.109C865.016 469.797 861.938 468.672 857.531 467.734C853.156 466.797 849.672 465.672 847.078 464.359C844.516 463.047 842.609 461.484 841.359 459.672C840.141 457.859 839.531 455.703 839.531 453.203C839.531 449.047 841.281 445.531 844.781 442.656C848.312 439.781 852.812 438.344 858.281 438.344C864.031 438.344 868.688 439.828 872.25 442.797C875.844 445.766 877.641 449.562 877.641 454.188H868.922C868.922 451.812 867.906 449.766 865.875 448.047C863.875 446.328 861.344 445.469 858.281 445.469C855.125 445.469 852.656 446.156 850.875 447.531C849.094 448.906 848.203 450.703 848.203 452.922C848.203 455.016 849.031 456.594 850.688 457.656C852.344 458.719 855.328 459.734 859.641 460.703C863.984 461.672 867.5 462.828 870.188 464.172C872.875 465.516 874.859 467.141 876.141 469.047C877.453 470.922 878.109 473.219 878.109 475.938C878.109 480.469 876.297 484.109 872.672 486.859C869.047 489.578 864.344 490.938 858.562 490.938C854.5 490.938 850.906 490.219 847.781 488.781C844.656 487.344 842.203 485.344 840.422 482.781C838.672 480.188 837.797 477.391 837.797 474.391H846.469C846.625 477.297 847.781 479.609 849.938 481.328C852.125 483.016 855 483.859 858.562 483.859C861.844 483.859 864.469 483.203 866.438 481.891C868.438 480.547 869.438 478.766 869.438 476.547ZM887.109 464.172C887.109 459.203 888.078 454.734 890.016 450.766C891.984 446.797 894.703 443.734 898.172 441.578C901.672 439.422 905.656 438.344 910.125 438.344C917.031 438.344 922.609 440.734 926.859 445.516C931.141 450.297 933.281 456.656 933.281 464.594V465.203C933.281 470.141 932.328 474.578 930.422 478.516C928.547 482.422 925.844 485.469 922.312 487.656C918.812 489.844 914.781 490.938 910.219 490.938C903.344 490.938 897.766 488.547 893.484 483.766C889.234 478.984 887.109 472.656 887.109 464.781V464.172ZM895.828 465.203C895.828 470.828 897.125 475.344 899.719 478.75C902.344 482.156 905.844 483.859 910.219 483.859C914.625 483.859 918.125 482.141 920.719 478.703C923.312 475.234 924.609 470.391 924.609 464.172C924.609 458.609 923.281 454.109 920.625 450.672C918 447.203 914.5 445.469 910.125 445.469C905.844 445.469 902.391 447.172 899.766 450.578C897.141 453.984 895.828 458.859 895.828 465.203ZM965.859 464.219C965.859 456.438 967.703 450.188 971.391 445.469C975.078 440.719 979.906 438.344 985.875 438.344C991.812 438.344 996.516 440.375 999.984 444.438V418H1008.66V490H1000.69L1000.27 484.562C996.797 488.812 991.969 490.938 985.781 490.938C979.906 490.938 975.109 488.531 971.391 483.719C967.703 478.906 965.859 472.625 965.859 464.875V464.219ZM974.531 465.203C974.531 470.953 975.719 475.453 978.094 478.703C980.469 481.953 983.75 483.578 987.938 483.578C993.438 483.578 997.453 481.109 999.984 476.172V452.875C997.391 448.094 993.406 445.703 988.031 445.703C983.781 445.703 980.469 447.344 978.094 450.625C975.719 453.906 974.531 458.766 974.531 465.203ZM1019.86 464.172C1019.86 459.203 1020.83 454.734 1022.77 450.766C1024.73 446.797 1027.45 443.734 1030.92 441.578C1034.42 439.422 1038.41 438.344 1042.88 438.344C1049.78 438.344 1055.36 440.734 1059.61 445.516C1063.89 450.297 1066.03 456.656 1066.03 464.594V465.203C1066.03 470.141 1065.08 474.578 1063.17 478.516C1061.3 482.422 1058.59 485.469 1055.06 487.656C1051.56 489.844 1047.53 490.938 1042.97 490.938C1036.09 490.938 1030.52 488.547 1026.23 483.766C1021.98 478.984 1019.86 472.656 1019.86 464.781V464.172ZM1028.58 465.203C1028.58 470.828 1029.88 475.344 1032.47 478.75C1035.09 482.156 1038.59 483.859 1042.97 483.859C1047.38 483.859 1050.88 482.141 1053.47 478.703C1056.06 475.234 1057.36 470.391 1057.36 464.172C1057.36 458.609 1056.03 454.109 1053.38 450.672C1050.75 447.203 1047.25 445.469 1042.88 445.469C1038.59 445.469 1035.14 447.172 1032.52 450.578C1029.89 453.984 1028.58 458.859 1028.58 465.203ZM1122.19 459.578C1114.47 457.359 1108.84 454.641 1105.31 451.422C1101.81 448.172 1100.06 444.172 1100.06 439.422C1100.06 434.047 1102.2 429.609 1106.48 426.109C1110.8 422.578 1116.39 420.812 1123.27 420.812C1127.95 420.812 1132.12 421.719 1135.78 423.531C1139.47 425.344 1142.31 427.844 1144.31 431.031C1146.34 434.219 1147.36 437.703 1147.36 441.484H1138.31C1138.31 437.359 1137 434.125 1134.38 431.781C1131.75 429.406 1128.05 428.219 1123.27 428.219C1118.83 428.219 1115.36 429.203 1112.86 431.172C1110.39 433.109 1109.16 435.812 1109.16 439.281C1109.16 442.062 1110.33 444.422 1112.67 446.359C1115.05 448.266 1119.06 450.016 1124.72 451.609C1130.41 453.203 1134.84 454.969 1138.03 456.906C1141.25 458.812 1143.62 461.047 1145.16 463.609C1146.72 466.172 1147.5 469.188 1147.5 472.656C1147.5 478.188 1145.34 482.625 1141.03 485.969C1136.72 489.281 1130.95 490.938 1123.73 490.938C1119.05 490.938 1114.67 490.047 1110.61 488.266C1106.55 486.453 1103.41 483.984 1101.19 480.859C1099 477.734 1097.91 474.188 1097.91 470.219H1106.95C1106.95 474.344 1108.47 477.609 1111.5 480.016C1114.56 482.391 1118.64 483.578 1123.73 483.578C1128.48 483.578 1132.12 482.609 1134.66 480.672C1137.19 478.734 1138.45 476.094 1138.45 472.75C1138.45 469.406 1137.28 466.828 1134.94 465.016C1132.59 463.172 1128.34 461.359 1122.19 459.578ZM1189.03 484.984C1185.66 488.953 1180.7 490.938 1174.17 490.938C1168.77 490.938 1164.64 489.375 1161.8 486.25C1158.98 483.094 1157.56 478.438 1157.53 472.281V439.281H1166.2V472.047C1166.2 479.734 1169.33 483.578 1175.58 483.578C1182.2 483.578 1186.61 481.109 1188.8 476.172V439.281H1197.47V490H1189.22L1189.03 484.984ZM1220.11 490H1211.44V418H1220.11V490Z" fill="black"/>
<path d="M408.047 360H393.984V291.75H408.047V360ZM476.625 360H462.562L435.188 315.094V360H421.125V291.75H435.188L462.609 336.75V291.75H476.625V360ZM524.297 342.094C524.297 339.438 523.359 337.406 521.484 336C519.609 334.562 516.234 333.062 511.359 331.5C506.484 329.906 502.625 328.344 499.781 326.812C492.031 322.625 488.156 316.984 488.156 309.891C488.156 306.203 489.188 302.922 491.25 300.047C493.344 297.141 496.328 294.875 500.203 293.25C504.109 291.625 508.484 290.812 513.328 290.812C518.203 290.812 522.547 291.703 526.359 293.484C530.172 295.234 533.125 297.719 535.219 300.938C537.344 304.156 538.406 307.812 538.406 311.906H524.344C524.344 308.781 523.359 306.359 521.391 304.641C519.422 302.891 516.656 302.016 513.094 302.016C509.656 302.016 506.984 302.75 505.078 304.219C503.172 305.656 502.219 307.562 502.219 309.938C502.219 312.156 503.328 314.016 505.547 315.516C507.797 317.016 511.094 318.422 515.438 319.734C523.438 322.141 529.266 325.125 532.922 328.688C536.578 332.25 538.406 336.688 538.406 342C538.406 347.906 536.172 352.547 531.703 355.922C527.234 359.266 521.219 360.938 513.656 360.938C508.406 360.938 503.625 359.984 499.312 358.078C495 356.141 491.703 353.5 489.422 350.156C487.172 346.812 486.047 342.938 486.047 338.531H500.156C500.156 346.062 504.656 349.828 513.656 349.828C517 349.828 519.609 349.156 521.484 347.812C523.359 346.438 524.297 344.531 524.297 342.094ZM599.344 303.141H578.438V360H564.375V303.141H543.75V291.75H599.344V303.141ZM622.359 360H608.297V291.75H622.359V360ZM685.406 303.141H664.5V360H650.438V303.141H629.812V291.75H685.406V303.141ZM745.125 291.75V336.703C745.125 344.172 742.781 350.078 738.094 354.422C733.438 358.766 727.062 360.938 718.969 360.938C711 360.938 704.672 358.828 699.984 354.609C695.297 350.391 692.906 344.594 692.812 337.219V291.75H706.875V336.797C706.875 341.266 707.938 344.531 710.062 346.594C712.219 348.625 715.188 349.641 718.969 349.641C726.875 349.641 730.891 345.484 731.016 337.172V291.75H745.125ZM808.031 303.141H787.125V360H773.062V303.141H752.438V291.75H808.031V303.141ZM870.844 327.422C870.844 334.141 869.656 340.031 867.281 345.094C864.906 350.156 861.5 354.062 857.062 356.812C852.656 359.562 847.594 360.938 841.875 360.938C836.219 360.938 831.172 359.578 826.734 356.859C822.297 354.141 818.859 350.266 816.422 345.234C813.984 340.172 812.75 334.359 812.719 327.797V324.422C812.719 317.703 813.922 311.797 816.328 306.703C818.766 301.578 822.188 297.656 826.594 294.938C831.031 292.188 836.094 290.812 841.781 290.812C847.469 290.812 852.516 292.188 856.922 294.938C861.359 297.656 864.781 301.578 867.188 306.703C869.625 311.797 870.844 317.688 870.844 324.375V327.422ZM856.594 324.328C856.594 317.172 855.312 311.734 852.75 308.016C850.188 304.297 846.531 302.438 841.781 302.438C837.062 302.438 833.422 304.281 830.859 307.969C828.297 311.625 827 317 826.969 324.094V327.422C826.969 334.391 828.25 339.797 830.812 343.641C833.375 347.484 837.062 349.406 841.875 349.406C846.594 349.406 850.219 347.562 852.75 343.875C855.281 340.156 856.562 334.75 856.594 327.656V324.328ZM946.031 332.109H919.031V360H904.969V291.75H949.406V303.141H919.031V320.766H946.031V332.109ZM998.625 330.422H971.625V348.703H1003.31V360H957.562V291.75H1003.22V303.141H971.625V319.406H998.625V330.422ZM1011.56 360V291.75H1032.56C1038.56 291.75 1043.92 293.109 1048.64 295.828C1053.39 298.516 1057.09 302.359 1059.75 307.359C1062.41 312.328 1063.73 317.984 1063.73 324.328V327.469C1063.73 333.812 1062.42 339.453 1059.8 344.391C1057.2 349.328 1053.53 353.156 1048.78 355.875C1044.03 358.594 1038.67 359.969 1032.7 360H1011.56ZM1025.62 303.141V348.703H1032.42C1037.92 348.703 1042.12 346.906 1045.03 343.312C1047.94 339.719 1049.42 334.578 1049.48 327.891V324.281C1049.48 317.344 1048.05 312.094 1045.17 308.531C1042.3 304.938 1038.09 303.141 1032.56 303.141H1025.62ZM1115.06 330.422H1088.06V348.703H1119.75V360H1074V291.75H1119.66V303.141H1088.06V319.406H1115.06V330.422ZM1153.27 335.016H1142.06V360H1128V291.75H1153.36C1161.42 291.75 1167.64 293.547 1172.02 297.141C1176.39 300.734 1178.58 305.812 1178.58 312.375C1178.58 317.031 1177.56 320.922 1175.53 324.047C1173.53 327.141 1170.48 329.609 1166.39 331.453L1181.16 359.344V360H1166.06L1153.27 335.016ZM1142.06 323.625H1153.41C1156.94 323.625 1159.67 322.734 1161.61 320.953C1163.55 319.141 1164.52 316.656 1164.52 313.5C1164.52 310.281 1163.59 307.75 1161.75 305.906C1159.94 304.062 1157.14 303.141 1153.36 303.141H1142.06V323.625ZM1227.84 345.938H1203.19L1198.5 360H1183.55L1208.95 291.75H1221.98L1247.53 360H1232.58L1227.84 345.938ZM1206.98 334.547H1224.05L1215.47 309L1206.98 334.547ZM1267.97 348.703H1297.83V360H1253.91V291.75H1267.97V348.703Z" fill="black"/>
<circle cx="50" cy="50" r="50" fill="#CD191E"/>
<rect x="130" width="100" height="100" rx="15" fill="#2F9E41"/>
<rect y="260" width="100" height="100" rx="15" fill="#2F9E41"/>
<rect x="130" y="260" width="100" height="100" rx="15" fill="#2F9E41"/>
<rect x="130" y="390" width="100" height="100" rx="15" fill="#2F9E41"/>
<rect x="130" y="130" width="100" height="100" rx="15" fill="#2F9E41"/>
<rect x="260" y="260" width="100" height="100" rx="15" fill="#2F9E41"/>
<rect y="390" width="100" height="100" rx="15" fill="#2F9E41"/>
<rect y="130" width="100" height="100" rx="15" fill="#2F9E41"/>
<rect x="260" width="100" height="100" rx="15" fill="#2F9E41"/>
</svg>
